<svg xmlns="http://www.w3.org/2000/svg" viewBox="0 0 24 24"><defs><style>.cls-2,.cls-3{fill:none;stroke-linecap:round;stroke-linejoin:round;stroke-width:2px}.cls-2{stroke:#3b44ab}.cls-3{stroke:#0194f3}</style></defs><g id="Layer_2" data-name="Layer 2"><g id="Layer_1-2" data-name="Layer 1"><path fill="#fff" d="M0 0h24v24H0z"/><path d="M14.74 19.24 12 16.5l5.5-5.5m2.76 2.76L23 16.5 17.5 22" class="cls-2"/><path d="M8.87 17.61h-5.7a1.09 1.09 0 0 1-1.09-1.09v-4.34a3.26 3.26 0 0 1 3.26-3.25h9.41M3.17 17.61h3.26v1.63a1.63 1.63 0 1 1-3.26 0zm19.54-8.68h-3.26L19 6a5.43 5.43 0 0 0-5.37-4.66H10A5.43 5.43 0 0 0 4.68 6l-.42 2.93H1" class="cls-3"/><path d="M5.88 13.27H7a.54.54 0 0 1 0 1.09H5.88a.54.54 0 0 1 0-1.09z" class="cls-3"/><path d="m16.01 16.75 1.12 1.12L19 16" class="cls-2"/></g></g></svg>