<svg xmlns="http://www.w3.org/2000/svg" viewBox="0 0 24 24"><defs><style>.cls-4{fill:#fff}.cls-2,.cls-3{fill:none}.cls-2,.cls-3,.cls-4{stroke:#3b44ab;stroke-linecap:round;stroke-linejoin:round;stroke-width:2px}.cls-3,.cls-4{stroke:#0194f3}</style></defs><g id="Layer_2" data-name="Layer 2"><g id="Layer_1-2" data-name="Layer 1"><path fill="#fff" d="M0 0h24v24H0z"/><path class="cls-2" d="M14.74 19.24L12 16.5l5.5-5.5M20.26 13.76L23 16.5 17.5 22"/><path class="cls-3" d="M13.57 7.86a8.06 8.06 0 1 0-1.83 14.77M7.71 18l2-3.26-1.86-3.1"/><path class="cls-4" d="M11.31 8.37l-1.45.2A2.61 2.61 0 0 1 7.3 7.43l-2-3a.87.87 0 0 1 .26-1.2l.19-.09.5-.23a1.74 1.74 0 0 1 1.86.46l1 1 8.7-2.45a.68.68 0 0 1 .86.65H20a1.74 1.74 0 0 1 1.66 1.21v.14a1.44 1.44 0 0 1-.9 1.81l-2.14.73"/><path class="cls-4" d="M11.37 7.89A1.43 1.43 0 0 0 13 8.8l4.35-1a1.14 1.14 0 0 0 .88-1.35v-.2a1.43 1.43 0 0 0-1.72-.88l-4.34 1a1.14 1.14 0 0 0-.85 1.37z"/><path class="cls-2" d="M16.01 16.75l1.12 1.12L19 16"/></g></g></svg>