<svg xmlns="http://www.w3.org/2000/svg" viewBox="0 0 24 24.32"><defs><style>.cls-2,.cls-3{fill:#fff;stroke:#3b44ab;stroke-linecap:round;stroke-linejoin:round;stroke-width:2px}.cls-3{fill:none;stroke:#0194f3}</style></defs><g id="Layer_2" data-name="Layer 2"><g id="Layer_1-2" data-name="Layer 1"><path fill="#fff" d="M0 .32h24v24H0z"/><path d="M14.74 19.56 12 16.82l5.5-5.5m2.76 2.77L23 16.82l-5.5 5.5m-1.49-5.25 1.12 1.12L19 16.32" class="cls-2"/><ellipse cx="15.12" cy="2.4" class="cls-3" rx="1.38" ry="1.4"/><path d="M18 2.52h-1.5m-5.76 17.71V21a2.27 2.27 0 0 1-2.25 2.28A2.27 2.27 0 0 1 6.23 21v-4.4a2.39 2.39 0 0 0-2.38-2.41M18 2.78s-.25 8.62-7.26 8.62v2.42" class="cls-3"/><ellipse cx="6.35" cy="2.4" class="cls-3" rx="1.38" ry="1.4"/><path d="M3.47 2.52h1.51m-1.51.26s.25 8.62 7.26 8.62" class="cls-3"/><circle cx="2.5" cy="13.82" r="1.5" class="cls-3"/></g></g></svg>