<svg xmlns="http://www.w3.org/2000/svg" viewBox="0 0 24.1 24.34"><defs><style>.cls-2,.cls-4{fill:none;stroke-linecap:round;stroke-linejoin:round;stroke-width:2px}.cls-2{stroke:#0194f3}.cls-4{stroke:#3b44ab}</style></defs><g id="Layer_2" data-name="Layer 2"><g id="Layer_1-2" data-name="Layer 1"><path fill="#fff" d="M0 .25h24v24H0z"/><rect class="cls-2" x="6.69" y="16.67" width="3.22" height="6.67" rx="1.61" ry="1.61"/><path class="cls-2" d="M8.3 1a12 12 0 0 0-2.94.59s0 2.35 2.94 2.35M8.3 1a12 12 0 0 1 2.94.59s0 2.35-2.94 2.35M1.25 2.76l4.08-.71M15.36 2.76l-4.09-.71M8.42 13.63c-3.88 0-4.26 3.88-4.26 3.88C2.44 15 2.59 7.8 3.56 6.83S8.3 5.7 8.3 5.7M13.68 11.25c.06-2.09-.18-4-.63-4.42-1-1-4.74-1.12-4.74-1.12M8.19 13.63a4.65 4.65 0 0 1 1.28.17"/><path d="M8.3 8.29c-.84 0-1.52.39-1.52.87s.69.84 1.52.84 1.52-.39 1.52-.87-.68-.87-1.52-.87z" fill="#0194f3"/><path class="cls-4" d="M14.84 20.12l-2.74-2.74 5.5-5.5M20.36 14.64l2.74 2.74-5.5 5.5M16.11 17.63l1.12 1.12 1.87-1.87"/></g></g></svg>